<svg xmlns="http://www.w3.org/2000/svg" width="93" height="43" viewBox="0 0 93 43" fill="none"><path fill-rule="evenodd" clip-rule="evenodd" d="M0 40.1331V42.399L1.26378 42.3645L2.52757 42.3293L2.83253 41.988C3.23602 41.5362 3.26551 40.7644 2.89591 40.3345L2.65433 40.0534L2.85512 39.648C3.39289 38.56 2.8181 37.9481 1.21233 37.9017L0 37.8666V40.1331ZM13.0903 39.7077C13.1217 41.3617 13.1455 41.5575 13.3438 41.8255C14.0133 42.7291 15.7145 42.6117 16.2203 41.6278C16.5302 41.0235 16.5221 37.8848 16.2102 37.8848C16.0107 37.8848 16.0013 37.9544 16.0013 39.3883C16.0013 41.5004 15.7716 41.9635 14.7243 41.9635C14.3221 41.9635 14.1608 41.9045 13.8847 41.6579L13.5433 41.353L13.5063 39.6185C13.4712 37.9726 13.4592 37.8848 13.2622 37.8848C13.0627 37.8848 13.0564 37.9488 13.0903 39.7077ZM26.564 40.1331V42.3814H26.8256H27.0867V40.1331V37.8848H26.8256H26.564V40.1331ZM37.2315 40.1331V42.3814H38.5385C39.7766 42.3814 39.8463 42.3708 39.8463 42.1725C39.8463 41.9773 39.7766 41.9635 38.8002 41.9635H37.7542V39.9241V37.8848H37.4931H37.2315V40.1331ZM49.6767 40.1444V42.4034L50.9222 42.3664C52.6836 42.3137 53.4417 41.6554 53.4417 40.1789C53.4417 38.548 52.6447 37.8848 50.6844 37.8848H49.6767V40.1444ZM63.4817 40.1331V42.3814H64.7894C66.0268 42.3814 66.0965 42.3708 66.0965 42.1725C66.0965 41.9767 66.0268 41.9635 64.9983 41.9635H63.9002V41.1264V40.29H64.8935C65.8178 40.29 65.8875 40.2755 65.8875 40.081C65.8875 39.8865 65.8178 39.8714 64.8935 39.8714H63.9002V39.0871V38.3027H64.9983C66.0268 38.3027 66.0965 38.2895 66.0965 38.0937C66.0965 37.8954 66.0268 37.8848 64.7894 37.8848H63.4817V40.1331ZM76.0317 40.1331V42.3814H76.2933C76.5519 42.3814 76.555 42.3714 76.555 41.4929V40.6037H77.1775H77.7993L78.1972 41.2902C78.4155 41.6673 78.6408 42.0671 78.6973 42.1787C78.8121 42.4046 79.2739 42.4586 79.2739 42.2459C79.2739 42.1718 79.0587 41.7615 78.7958 41.3354C78.3478 40.6081 78.3296 40.5516 78.5084 40.4293C79.0888 40.0333 79.1861 39.8445 79.1472 39.1881C79.0851 38.1339 78.701 37.8848 77.1367 37.8848H76.0317V40.1331ZM89.4507 38.1351C88.5471 38.895 89.0812 39.953 90.569 40.349C91.4506 40.5836 91.7819 41.2137 91.2969 41.7345C90.8451 42.2195 89.5624 41.9535 89.3654 41.3329C89.2424 40.9451 88.8502 41.1722 88.9513 41.5732C89.2493 42.7617 91.7637 42.687 91.9896 41.4829C92.1352 40.7066 91.6991 40.2134 90.569 39.8758C89.565 39.5765 89.2368 39.0268 89.7651 38.5305C90.1761 38.1446 91.214 38.2826 91.3602 38.7432C91.4493 39.0243 91.8905 38.9578 91.8396 38.6704C91.7097 37.9262 90.1215 37.5704 89.4507 38.1351ZM2.23453 38.5198C2.98815 39.1128 2.42843 39.8714 1.2368 39.8714H0.417915V39.0871V38.3027H1.18849C1.80909 38.3027 2.01239 38.3447 2.23453 38.5198ZM52.267 38.6152C53.7993 39.7484 53.0074 41.8499 51.012 41.9453L50.0952 41.9886V40.1331V38.2776L51.012 38.3209C51.7731 38.3573 51.9865 38.4075 52.267 38.6152ZM78.4996 38.6497C79.1604 39.4184 78.6496 40.081 77.3965 40.081H76.555V39.1806V38.2807L77.4015 38.319C78.1758 38.3541 78.27 38.3824 78.4996 38.6497ZM2.22888 40.4117C3.31131 40.9884 2.73527 41.9635 1.3121 41.9635H0.417915V41.1264V40.29H1.20919C1.64467 40.29 2.10338 40.3446 2.22888 40.4117Z" fill="#FCFCFC"></path><path fill-rule="evenodd" clip-rule="evenodd" d="M0 17.0473V34.094H1.72563H3.45125L3.45689 19.1124C3.46191 7.48042 3.49141 4.17476 3.58804 4.32662C3.65644 4.43392 4.05678 5.06895 4.47784 5.73849C4.89826 6.40741 5.38081 7.15099 5.54961 7.39006C5.71841 7.62977 5.85646 7.85442 5.85646 7.88956C5.85646 7.9247 6.02274 8.19955 6.22543 8.50012C6.42811 8.80069 6.63958 9.11695 6.69543 9.20355C6.75065 9.28951 6.93199 9.57189 7.09765 9.83105C7.26331 10.0896 7.79543 10.9135 8.28112 11.6608C8.76617 12.4088 9.27508 13.2089 9.4125 13.4392C9.62899 13.8012 10.0143 14.4112 11.0308 16.0012C12.2356 17.8863 12.5462 18.3757 12.8638 18.8921C13.0646 19.2197 13.6531 20.1396 14.1708 20.9365C14.6885 21.7335 15.3236 22.7211 15.5827 23.1309C16.0985 23.9473 16.5528 24.6595 17.2726 25.7796C17.5317 26.1824 17.9942 26.9116 18.301 27.401C18.6079 27.8899 19.1946 28.8073 19.605 29.4404C20.016 30.0729 20.5839 30.9671 20.8669 31.4271C21.1505 31.8877 21.4185 32.2799 21.463 32.2987C21.5076 32.3181 21.544 32.3777 21.544 32.4317C21.544 32.539 22.0428 33.3341 22.243 33.5455C22.3114 33.6177 22.3967 33.7708 22.4331 33.8856C22.4965 34.0858 22.5938 34.094 24.8979 34.094H27.2963V17.0473V0H25.5706H23.845L23.8412 14.563C23.8387 27.2391 23.8186 29.0991 23.6881 28.9171C23.6059 28.8022 23.4892 28.651 23.4302 28.582C23.3706 28.5123 23.3217 28.432 23.3217 28.4038C23.3217 28.3429 22.0234 26.3606 21.8634 26.1762C21.8025 26.1071 21.7529 26.0249 21.7529 25.9942C21.7529 25.9628 21.3852 25.3849 20.9353 24.7084C19.8346 23.0537 19.3063 22.2449 19.2429 22.1194C19.1168 21.8665 18.3468 20.7564 18.2759 20.7251C18.2326 20.7056 18.1975 20.651 18.1975 20.6033C18.1975 20.5186 16.9532 18.584 16.7373 18.3324C16.6771 18.2634 16.6288 18.1862 16.6288 18.1617C16.6288 18.1366 16.4461 17.8411 16.224 17.5035C15.8394 16.9212 14.1175 14.2888 12.7094 12.1315C11.9125 10.9103 10.178 8.2648 7.15601 3.6602C6.87238 3.22911 6.61698 2.82877 6.58749 2.77167C6.55863 2.71394 6.14071 2.06699 5.65879 1.33344L4.78281 0H2.3914H0V17.0473ZM31.294 1.80406L31.3223 3.60812H33.0479H34.7735L34.8024 1.80406L34.8313 0H33.0479H31.2652L31.294 1.80406ZM67.2467 15.3217V30.6427H54.7494H42.2515L42.2565 20.1584L42.2609 9.67417L42.9097 9.19413C43.2667 8.93058 44.3824 8.10354 45.389 7.35619C46.3955 6.60883 47.4917 5.79873 47.8243 5.55526L48.4292 5.11287L49.602 5.97693C50.2471 6.45258 51.278 7.22001 51.8924 7.68248C52.5067 8.14495 53.1116 8.59424 53.2358 8.6802C53.4492 8.82892 53.5728 8.92618 54.039 9.31461C54.147 9.40434 54.3158 9.50914 54.4137 9.54679C54.5774 9.60954 54.5925 9.93144 54.5925 13.4354V17.2562H51.5592H48.5265V15.7396V14.2235H46.7488H44.9704V17.5179V20.8123H51.5604H58.1498L58.1228 14.3578L58.0958 7.90399L56.684 6.8454C54.3578 5.1022 49.8674 1.75449 49.3629 1.38803C48.3188 0.630014 48.5032 0.655739 47.7942 1.1659C47.4459 1.41627 46.7952 1.9032 46.3471 2.24833C45.8991 2.59345 45.143 3.1582 44.6661 3.50333C44.1898 3.84845 43.6188 4.27202 43.3979 4.44458C43.177 4.61714 42.4498 5.15868 41.7815 5.6475C41.1125 6.13632 40.1569 6.84665 39.6567 7.22566L38.7481 7.91528L38.7211 21.0049L38.6948 34.094H54.6967H70.6979V17.0473V0H68.9723H67.2467V15.3217ZM31.2702 20.289V34.094H33.0479H34.8263V20.289V6.48395H33.0479H31.2702V20.289ZM82.8821 15.3763C82.3707 15.7559 82.0293 16.0182 81.8599 16.1619C81.7896 16.2215 81.0736 16.7624 80.2698 17.3642C78.8071 18.4598 78.5172 18.6819 78.2951 18.8771C78.2292 18.9348 77.3883 19.5705 76.4251 20.289L74.675 21.5967L74.6738 27.8453L74.6725 34.094H83.3527H92.0329V27.8805V21.6676L91.7386 21.4228C91.5767 21.2879 91.3163 21.084 91.1594 20.9692C90.5087 20.491 88.5064 18.9863 88.2158 18.7566C87.7665 18.4008 87.7559 18.3927 87.0675 17.8794C86.7237 17.6227 86.3704 17.3579 86.2831 17.2901C86.1959 17.2224 85.7711 16.8923 85.34 16.5578C84.326 15.7703 83.3703 15.0594 83.3307 15.0631C83.3144 15.0644 83.1124 15.2056 82.8821 15.3763ZM83.4261 19.3759C83.4719 19.4487 83.6106 19.578 83.7342 19.6633C84.1534 19.9526 88.1104 22.9508 88.2497 23.0845C88.3256 23.1579 88.4311 23.2175 88.485 23.2175C88.5428 23.2175 88.5817 24.7153 88.5817 26.9304V30.6427H83.2479H77.9142V26.9028V23.1623L78.1947 22.9546C78.7801 22.5203 81.6396 20.3505 81.9013 20.1415C82.0525 20.0216 82.2985 19.8346 82.4491 19.7267C82.5991 19.6188 82.8049 19.4669 82.9066 19.3904C83.1412 19.2122 83.3195 19.2072 83.4261 19.3759Z" fill="#DCD4CC"></path></svg>